{
    "asset" : {
        "generator" : "Khronos glTF Blender I/O v1.6.16",
        "version" : "2.0"
    },
    "scene" : 0,
    "scenes" : [
        {
            "name" : "Scene",
            "nodes" : [
                5,
                6,
                7,
                8,
                9
            ]
        }
    ],
    "nodes" : [
        {
            "mesh" : 0,
            "name" : "Mesh_1.001",
            "rotation" : [
                1,
                0,
                0,
                6.816503361761761e-09
            ],
            "scale" : [
                0.6211884021759033,
                -0.9934861660003662,
                0.4547932744026184
            ],
            "translation" : [
                0,
                0,
                4.928616523742676
            ]
        },
        {
            "mesh" : 1,
            "name" : "Mesh_2.001"
        },
        {
            "mesh" : 2,
            "name" : "Mesh_3"
        },
        {
            "children" : [
                0,
                1,
                2
            ],
            "name" : "pwrecyclebin.obj.cleaner.materialmerger.gles"
        },
        {
            "children" : [
                3
            ],
            "name" : "RootNode (model correction matrix)"
        },
        {
            "children" : [
                4
            ],
            "name" : "RootNode (gltf orientation matrix)",
            "rotation" : [
                0.6108003854751587,
                0.4021047055721283,
                0.33126962184906006,
                -0.596234142780304
            ],
            "scale" : [
                1.2102566957473755,
                1.0301529169082642,
                1.0593434572219849
            ]
        },
        {
            "name" : "Light",
            "rotation" : [
                -0.4344402849674225,
                0.8548310399055481,
                -0.26067253947257996,
                0.11213972419500351
            ],
            "scale" : [
                1.5887539386749268,
                1.0864882469177246,
                1.1870290040969849
            ],
            "translation" : [
                -65.03092956542969,
                44.625450134277344,
                -20.465961456298828
            ]
        },
        {
            "name" : "pwrecyclebin",
            "rotation" : [
                0.7071068286895752,
                0,
                0,
                0.7071067094802856
            ],
            "translation" : [
                21.875497817993164,
                -29.89895248413086,
                4.594426155090332
            ]
        },
        {
            "mesh" : 3,
            "name" : "Plane",
            "scale" : [
                31.186866760253906,
                31.186866760253906,
                31.186866760253906
            ],
            "translation" : [
                0.4171304702758789,
                -8.998331069946289,
                0.16678258776664734
            ]
        },
        {
            "name" : "Camera",
            "rotation" : [
                0.49290987849235535,
                0.5068718194961548,
                -0.4894829988479614,
                0.5104186534881592
            ],
            "translation" : [
                137.8955535888672,
                7.134865760803223,
                0.0009176518069580197
            ]
        }
    ],
    "materials" : [
        {
            "alphaMode" : "BLEND",
            "doubleSided" : true,
            "name" : "material_2.001",
            "pbrMetallicRoughness" : {
                "baseColorTexture" : {
                    "index" : 0
                },
                "metallicFactor" : 0
            }
        },
        {
            "doubleSided" : true,
            "name" : "material_3",
            "pbrMetallicRoughness" : {
                "metallicFactor" : 0
            }
        },
        {
            "doubleSided" : true,
            "name" : "material_4",
            "pbrMetallicRoughness" : {
                "baseColorTexture" : {
                    "index" : 1
                },
                "metallicFactor" : 0
            }
        }
    ],
    "meshes" : [
        {
            "name" : "Mesh_1.001",
            "primitives" : [
                {
                    "attributes" : {
                        "POSITION" : 0,
                        "NORMAL" : 1,
                        "TEXCOORD_0" : 2
                    },
                    "indices" : 3,
                    "material" : 0
                }
            ]
        },
        {
            "name" : "Mesh_2.001",
            "primitives" : [
                {
                    "attributes" : {
                        "POSITION" : 4,
                        "NORMAL" : 5,
                        "TEXCOORD_0" : 6
                    },
                    "indices" : 7,
                    "material" : 1
                }
            ]
        },
        {
            "name" : "Mesh_3",
            "primitives" : [
                {
                    "attributes" : {
                        "POSITION" : 8,
                        "NORMAL" : 9,
                        "TEXCOORD_0" : 10
                    },
                    "indices" : 11,
                    "material" : 2
                }
            ]
        },
        {
            "name" : "Plane",
            "primitives" : [
                {
                    "attributes" : {
                        "POSITION" : 12,
                        "NORMAL" : 13,
                        "TEXCOORD_0" : 14
                    },
                    "indices" : 15
                }
            ]
        }
    ],
    "textures" : [
        {
            "sampler" : 0,
            "source" : 0
        },
        {
            "sampler" : 0,
            "source" : 1
        }
    ],
    "images" : [
        {
            "bufferView" : 4,
            "mimeType" : "image/png",
            "name" : "final greenta web 33"
        },
        {
            "bufferView" : 13,
            "mimeType" : "image/png",
            "name" : "material_4_baseColor"
        }
    ],
    "accessors" : [
        {
            "bufferView" : 0,
            "componentType" : 5126,
            "count" : 8,
            "max" : [
                9,
                7.099999904632568,
                10.5
            ],
            "min" : [
                -9,
                -7.099999904632568,
                -7.5
            ],
            "type" : "VEC3"
        },
        {
            "bufferView" : 1,
            "componentType" : 5126,
            "count" : 8,
            "type" : "VEC3"
        },
        {
            "bufferView" : 2,
            "componentType" : 5126,
            "count" : 8,
            "type" : "VEC2"
        },
        {
            "bufferView" : 3,
            "componentType" : 5123,
            "count" : 12,
            "type" : "SCALAR"
        },
        {
            "bufferView" : 5,
            "componentType" : 5126,
            "count" : 696,
            "max" : [
                8,
                8,
                17.696189880371094
            ],
            "min" : [
                -8,
                -8,
                -8
            ],
            "type" : "VEC3"
        },
        {
            "bufferView" : 6,
            "componentType" : 5126,
            "count" : 696,
            "type" : "VEC3"
        },
        {
            "bufferView" : 7,
            "componentType" : 5126,
            "count" : 696,
            "type" : "VEC2"
        },
        {
            "bufferView" : 8,
            "componentType" : 5123,
            "count" : 936,
            "type" : "SCALAR"
        },
        {
            "bufferView" : 9,
            "componentType" : 5126,
            "count" : 2394,
            "max" : [
                7.000000953674316,
                7,
                17.196741104125977
            ],
            "min" : [
                -7.000000953674316,
                -7,
                -7.5
            ],
            "type" : "VEC3"
        },
        {
            "bufferView" : 10,
            "componentType" : 5126,
            "count" : 2394,
            "type" : "VEC3"
        },
        {
            "bufferView" : 11,
            "componentType" : 5126,
            "count" : 2394,
            "type" : "VEC2"
        },
        {
            "bufferView" : 12,
            "componentType" : 5123,
            "count" : 3168,
            "type" : "SCALAR"
        },
        {
            "bufferView" : 14,
            "componentType" : 5126,
            "count" : 4,
            "max" : [
                1,
                0,
                1
            ],
            "min" : [
                -1,
                0,
                -1
            ],
            "type" : "VEC3"
        },
        {
            "bufferView" : 15,
            "componentType" : 5126,
            "count" : 4,
            "type" : "VEC3"
        },
        {
            "bufferView" : 16,
            "componentType" : 5126,
            "count" : 4,
            "type" : "VEC2"
        },
        {
            "bufferView" : 17,
            "componentType" : 5123,
            "count" : 6,
            "type" : "SCALAR"
        }
    ],
    "bufferViews" : [
        {
            "buffer" : 0,
            "byteLength" : 96,
            "byteOffset" : 0
        },
        {
            "buffer" : 0,
            "byteLength" : 96,
            "byteOffset" : 96
        },
        {
            "buffer" : 0,
            "byteLength" : 64,
            "byteOffset" : 192
        },
        {
            "buffer" : 0,
            "byteLength" : 24,
            "byteOffset" : 256
        },
        {
            "buffer" : 0,
            "byteLength" : 3283,
            "byteOffset" : 280
        },
        {
            "buffer" : 0,
            "byteLength" : 8352,
            "byteOffset" : 3564
        },
        {
            "buffer" : 0,
            "byteLength" : 8352,
            "byteOffset" : 11916
        },
        {
            "buffer" : 0,
            "byteLength" : 5568,
            "byteOffset" : 20268
        },
        {
            "buffer" : 0,
            "byteLength" : 1872,
            "byteOffset" : 25836
        },
        {
            "buffer" : 0,
            "byteLength" : 28728,
            "byteOffset" : 27708
        },
        {
            "buffer" : 0,
            "byteLength" : 28728,
            "byteOffset" : 56436
        },
        {
            "buffer" : 0,
            "byteLength" : 19152,
            "byteOffset" : 85164
        },
        {
            "buffer" : 0,
            "byteLength" : 6336,
            "byteOffset" : 104316
        },
        {
            "buffer" : 0,
            "byteLength" : 294,
            "byteOffset" : 110652
        },
        {
            "buffer" : 0,
            "byteLength" : 48,
            "byteOffset" : 110948
        },
        {
            "buffer" : 0,
            "byteLength" : 48,
            "byteOffset" : 110996
        },
        {
            "buffer" : 0,
            "byteLength" : 32,
            "byteOffset" : 111044
        },
        {
            "buffer" : 0,
            "byteLength" : 12,
            "byteOffset" : 111076
        }
    ],
    "samplers" : [
        {
            "magFilter" : 9729,
            "minFilter" : 9987
        }
    ],
    "buffers" : [
        {
            "byteLength" : 111088,
            "uri" : "data:application/octet-stream;base64,"
        }
    ]
}
